# xmcd
#
# Track frame offsets:
#	225
#	11016
#	20462
#	29539
#	41305
#	54419
#	67174
#	76753
#	87565
#	97917
#	111870
#	122564
#
# Disc length: 1773 seconds
#
# Revision: 0
# Processed by: cddbd v1.5.2PL0 Copyright (c) Steve Scherf et al.
# Submitted via: EasyCDDAExtractor 12.0.1.1
#
DISCID=9106ea0c
DTITLE=Patsy Cline - Always . . . Patsy Cline
DYEAR=1900
DGENRE=Country
TTITLE0=Honky Tonk Merry Go Round
TTITLE1=Back In Baby's Arms
TTITLE2=Anytime
TTITLE3=Walkin' After Midnight
TTITLE4=I Fall To Pieces
TTITLE5=It Wasn't God Who Made Honky Tonk Angels
TTITLE6=Come On In (And Sit Right Down)
TTITLE7=Your Cheatin' Heart
TTITLE8=Stupid Cupid
TTITLE9=You Belong To Me
TTITLE10=San Antonio Rose
TTITLE11=Lovesick Blues
EXTD=
EXTT0=
EXTT1=
EXTT2=
EXTT3=
EXTT4=
EXTT5=
EXTT6=
EXTT7=
EXTT8=
EXTT9=
EXTT10=
EXTT11=
PLAYORDER=
